<?xml version="1.0" encoding="utf-8"?>
<!-- Generator: Adobe Illustrator 18.1.1, SVG Export Plug-In . SVG Version: 6.00 Build 0)  -->
<svg version="1.1" id="Layer_1" xmlns="http://www.w3.org/2000/svg" xmlns:xlink="http://www.w3.org/1999/xlink" x="0px" y="0px"
	 viewBox="0 0 172.2 315.8" enable-background="new 0 0 172.2 315.8" xml:space="preserve">
<g opacity="0.15">
	<path fill="#FFFFFF" d="M171.6,280.7l-6.6-15.4c-1.2-2.8-3.9-4.5-6.9-4.5c-1,0-2,0.2-3,0.6l-7.9,3.4c-1.8,0.8-3.3,2.3-4,4.1
		c-0.5,1.2-0.6,2.4-0.5,3.6c-3.5,1.5-7.4,3.1-9.7,4.3c-1.5,0.6-2.8,0.6-4.2,0.1c-4.1-1.6-7.3-7.6-8.2-9.8c-1.7-3.8-6-5.7-9.6-4.1
		l-0.6,0.3L47.9,117.6c-1.5-3.5-4.9-5.7-8.6-5.7c-1.3,0-2.5,0.3-3.7,0.8c-4.8,2-7,7.6-4.9,12.3l62.5,145.6c-2.8,1.9-3.9,5.8-2.5,9.2
		l4,9.3c0.6,1.4,0.8,2.6,0.4,3.3c-0.2,0.4-0.8,0.8-1.6,1c-9.2,2.2-24.1-1.4-38-9.4c-1.3-0.8-4-2.4-4-2.4c-1.5-0.9-3.4-0.8-4.8,0.3
		c-1.1,0.9-1.7,2.1-1.8,3.3c0,1.1,0.5,2.2,1.4,3c1.4,1.3,13,11.7,21.2,16.7c11.4,7,23.6,10.9,34.1,10.9c2.3,0,4.5-0.2,6.6-0.6
		c0.6-0.1,1.5-0.2,3-0.5c1.7-0.3,4.4-0.9,7.4-1.6c8-2,14.7-4.3,19.8-6.9c2.1-1,3.9-3.2,6.1-5.8c2.2-2.6,4.7-5.5,7.6-7.5
		c1.3,1.1,3,1.7,4.8,1.7c1,0,2-0.2,3-0.6l7.9-3.4C171.5,288.9,173.2,284.5,171.6,280.7z"/>
	<path fill="#FFFFFF" d="M130.6,5.3c0.3-1.2,0.8-2.5,0.5-3.7c-0.3-1.2-2-2.1-2.9-1.2c-0.7,7.2-0.8,14.4-0.2,21.6c0.5,0,1,0,1.5,0
		C131.1,16.6,129.2,10.7,130.6,5.3z"/>
	<path fill="#FFFFFF" d="M156.4,196.5c-0.2-21.6-0.5-84.6-1-106.2c0-0.6-0.5-1.4-1-1.1c-1.4,17.4-1.9,35-1.4,52.5
		c0.1,3.6,0.2,48.7-0.3,52.3c-0.3,1.9-0.8,3.9,0.1,5.6c0.9,1.7,3.9,2,4.4,0.2C157.4,198.4,157.3,197.5,156.4,196.5z"/>
	<path fill="#FFFFFF" d="M2.3,119.1c0-1.3-2-1.3-2,0c0,0,0,0,0,0C0.2,148.6,0.1,178,0,207.4c0,1.4,0.2,2.9,0.5,4.3
		c0.7,2.6,4.6,2.1,4.5-0.6C4.4,180.4,3.5,149.8,2.3,119.1z"/>
	<path fill="#FFFFFF" d="M78.8,66.8c-0.2-21.6-0.5-43.2-1-64.7c0-0.6-0.5-1.4-1-1.1c-1.4,17.4-1.9,35-1.4,52.5
		c0.1,3.6,0.2,7.3-0.3,10.8c-0.3,1.9-0.8,3.9,0.1,5.6c0.9,1.7,3.9,2,4.4,0.2C79.9,68.7,79.8,67.8,78.8,66.8z"/>
</g>
</svg>
