<?xml version="1.0" encoding="utf-8"?>
<!-- Generator: Adobe Illustrator 18.1.1, SVG Export Plug-In . SVG Version: 6.00 Build 0)  -->
<svg version="1.1" id="Layer_1" xmlns="http://www.w3.org/2000/svg" xmlns:xlink="http://www.w3.org/1999/xlink" x="0px" y="0px"
	 viewBox="0 0 183.9 310.9" enable-background="new 0 0 183.9 310.9" xml:space="preserve">
<g opacity="0.15">
	<path fill="#FFFFFF" d="M150.7,166.1c-0.1-11.9-0.3-73.4-0.5-85.3c0-0.3-0.3-0.8-0.5-0.6c-0.8,9.6-1,46-0.8,55.7
		c0.1,2,0.1,26.9-0.2,28.9c-0.2,1-0.4,2.1,0.1,3.1c0.5,0.9,2.2,1.1,2.4,0.1C151.2,167.2,151.2,166.6,150.7,166.1z"/>
	<path fill="#FFFFFF" d="M80.6,0.8c-0.1,7.8-0.4,16.8-0.6,24.5c0,2.5-0.1,5.1-0.1,7.6c-0.1,7.9-0.9,17.2-0.4,23.9
		c0.1,0.8,0.5,1.4,1.2,1.4h0.1c0.5,0,0.9-0.5,0.9-1.5l-0.4-56c0,0,0-0.4-0.1-0.5C81-0.1,80.6-0.2,80.6,0.8z"/>
	<path fill="#FFFFFF" d="M180.8,53.6c0,0.9-0.1,2,0.3,2.8c0.1,0.2,0.1,0.2,0.3,0.3c0.7,0.7,2,0.1,2-0.8c0.3-13.3-0.6-33.8-1.5-43.4
		c-0.1-0.6-0.1-0.6-0.2-0.6c-0.1,0-0.2,0.2-0.2,0.6L180.8,53.6z"/>
	<path fill="#FFFFFF" d="M49.7,179.7"/>
	<g>
		<path fill="#FFFFFF" d="M29,263.3c0.1-0.7,0.5-2.2,1.3-2.8c0.3-0.2,0.7-0.3,1.2-0.1c0.5,0.2,0.8,0.4,1,0.8c0.4,1-0.4,2.6-0.8,3.2
			L29,263.3z"/>
		<path fill="#FFFFFF" d="M24.4,261.3l2.7,1.2l0,0c0.4-0.7,1.2-2.3,0.9-3.3c-0.1-0.4-0.5-0.6-1-0.8c-0.5-0.1-0.9-0.1-1.2,0.1
			C25,259.1,24.6,260.6,24.4,261.3L24.4,261.3z"/>
		<path fill="#FFFFFF" d="M20.2,259.5c0.1-0.7,0.5-2.3,1.3-2.9c0.3-0.2,0.7-0.3,1.1-0.1c0.5,0.1,0.8,0.4,1,0.8
			c0.4,1-0.4,2.6-0.8,3.4h0L20.2,259.5z"/>
		<path fill="#FFFFFF" d="M75.4,298.1c-0.7-0.1-2.4-0.4-3-0.5c0-0.9,0.2-2.2,0.8-2.9c0.3-0.3,0.6-0.4,1.1-0.3
			c0.5,0.1,0.9,0.3,1.1,0.6C75.9,295.8,75.7,297.2,75.4,298.1z"/>
		<path fill="#FFFFFF" d="M105.1,302.6c0.4-0.8,1.1-2,2.1-2.4c0.4-0.1,0.8-0.1,1.2,0.1c0.4,0.2,0.7,0.5,0.7,0.9
			c0.2,1-0.8,2.3-1.3,3.1L105.1,302.6z"/>
		<path fill="#FFFFFF" d="M109,305.1c0.1-0.3,0.3-0.7,0.5-1.1c0,0,0.1-0.1,0.1-0.1c0.3-0.6,0.8-1.1,1.3-1.3c0.4-0.1,0.7-0.1,1.2,0.1
			c0.5,0.2,0.7,0.6,0.8,1c0.2,1-0.8,2.4-1.3,3L109,305.1z"/>
		<path fill="#FFFFFF" d="M115.5,308.9c0.5-0.7,1.3-2,1.2-2.9c-0.1-0.4-0.3-0.7-0.8-1c-0.4-0.2-0.8-0.3-1.2-0.1
			c-0.9,0.3-1.6,1.6-1.9,2.3L115.5,308.9z"/>
		<path fill="#FFFFFF" d="M85.7,298.1c0.1-0.8,0.1-2.2-0.6-2.9c-0.3-0.3-0.8-0.5-1.4-0.5c-0.5,0-0.9,0.2-1.1,0.5
			c-0.6,0.8-0.7,2.2-0.6,2.9L85.7,298.1z"/>
		<path fill="#FFFFFF" d="M80.7,298.3c0.1-1,0-2.6-0.7-3.4c-0.3-0.3-0.7-0.5-1.3-0.4c-0.5,0-0.8,0.2-1.1,0.5
			c-0.7,0.8-0.7,2.5-0.6,3.3L80.7,298.3z"/>
		<path fill="#FFFFFF" d="M143.5,310c-0.4-0.9-0.9-3.3-0.4-4.5c0.2-0.5,0.6-0.8,1.2-1c0.6-0.2,1.1-0.1,1.6,0.2
			c1.2,0.9,1.7,3.6,1.7,4.7L143.5,310z"/>
		<path fill="#FFFFFF" d="M141.8,310.3c-0.1-1-0.4-3.9-1.5-4.7c-0.4-0.3-1-0.4-1.6-0.2c-0.6,0.2-0.9,0.5-1.2,0.9
			c-0.6,1.2-0.3,3.5,0.1,4.5L141.8,310.3z"/>
		<path fill="#FFFFFF" d="M133.8,310.3c0.7,0.8,2.3,0.6,2.3,0.6c-0.1-1-0.3-2.8-0.6-4.3c-0.1-0.6-0.5-1-1.2-1.2
			c-0.3-0.1-0.6-0.1-0.8-0.1C133.5,305.3,133.1,308.3,133.8,310.3z"/>
		<path fill="#FFFFFF" d="M23.2,155.3C0.5,144.2,0,117.9,0,117.9c7.7,19.9,17.9,23.7,24.3,24.6C21.6,150.7,23.2,155.3,23.2,155.3z"
			/>
	</g>
	<g>
		<path fill="#FFFFFF" d="M180.4,155.4c-4.7,6.6-2.1,14.3-2.1,14.3l-0.1,0.1c0,0-4.5,3.4-7,9c-3,6.8,0.5,15,2.7,20.1
			c2.3,5.1,1.5,11.1-0.4,16c-2,4.9-4.3,7.8-9.3,10.6c-2.5,1.4-3.5-0.3-3.5-0.3c-0.9-1.4-1.5-2.8-2-4.1c-1.6-4.2-4.4-6.8-7.5-10.1
			c-1.8-2-4.6-5.9-7.3-7.7c-6-4-6.3-6.5-13.6-10.7c-3-1.7-12.6-5.6-15.9-6.5c-15-4.2-19.6-14.1-23.7-16.5c0,0-3-1.9-8-3.6
			c-0.2-0.1-0.1-0.4,0.1-0.3c6.1,1.5,21.7,5.6,33.8-2.1c1.5-1,6.3-0.7,7.5-1.5c2-1.3,2.3-2.8,2.4-3.5l-0.1-4.1
			c0.1,0.1,0.3,0.1,0.4,0.1c1.8,0.5,3.6-0.7,4.1-2.6c0.7-3.2,5-4.8,2.7-8.4c0,0-1.3-2.7-3.3-5.8c-0.7-1.1-2-1.7-3.3-1.6l-0.6,0.1
			l0.1-0.7c0.4-2.1-0.6-4.2-2.4-5.2c-1.2-0.6-2.4-1-3.1-1c0,0-4.6-10.7-10.3-10.2c0,0,1.4-0.6-2.1-6.5c-3.4-5.7-13.2-8.2-15.6-9.3
			c-1.3-0.6-4.5-1.4-4.8-1.4c-1.2-0.3-2,1.7-3,1.5c-1-0.2-12.2-6.6-14.5-6.1c0,0-2,0-2,0c-0.2,0.1-1.7,0-2,2.2
			c-2.5,19.5,8,39.3,8.2,44.5c0,0.5-0.6,0.6-0.8,0.1c-2.4-9.3-12.3-6.5-13.2-6.2c-2.3-0.4-4.8-0.4-7.4,0.3c0,0-1.8-2.4-5.7-1.5
			c0,0,0.3-3.3-3.9-2.4c0,0-5.7-10.5-6.9-17.4c-1.2-6.9-6-18.9-8.4-27.3c-2.4-8.4-4.5-14.1-4.5-15.3c0-1.2-6.9-23.1-15-28.8
			c0,0-1.2,0.6-0.9,2.7c0,0-5.1,1.5-3.6,2.1c1.5,0.6,4.5,1.2,6.6,7.2c2,5.6,9.8,33.8,12.2,47.9c0.3,1.5,0.4,3,0.4,4.5
			c0.1,5.6,0.7,22,5.7,27.4c-1.1,3.4,0.6,5.7,0.6,5.7c-0.8-0.2-2.3-0.1-4.3-0.3l0,0.1c-2.3,7.9-1,13.2-1,13.2
			c2.1,0.9,4.4,1.8,6.9,2.4c0,0-11.4,4.7,2.8,4.9c0.6,0,1.2,0.2,1.7,0.5c1.1,0.6,2.9,1.7,4.3,3.3c6.1,6.8,10.4,9.6,12.8,10.8
			c1.3,0.6,2.2,2,2,3.4c0,0-8.6,15.2,4.2,37c0,0-8.8,10.7-10,11.6c-1.2,0.9-3.9,6.8-5.6,7.2c-1.8,0.4-8.1-0.2-11.7,6.5
			c0,0-1.9,0.9-3.3,4.5c-0.3,0.9-0.5,1.4-0.7,1.8c0,0-3.1,2.3-5.2,2.7c-2.1,0.4-5,2.1-4.5,6.2L19,259c0.2-0.9,0.6-2.6,1.8-3.4
			c0.6-0.4,1.4-0.5,2.2-0.3c1.1,0.3,1.6,1,1.8,1.5c0.1,0.3,0.2,0.6,0.2,0.9c0.1-0.1,0.2-0.2,0.3-0.2c0.6-0.4,1.4-0.5,2.2-0.3
			c1.1,0.3,1.6,1,1.8,1.5c0.1,0.3,0.2,0.6,0.2,0.9c0.1-0.1,0.1-0.1,0.2-0.2c0.6-0.4,1.4-0.5,2.2-0.3c1.1,0.3,1.6,1,1.8,1.5
			c0.6,1.5-0.4,3.4-0.8,4.2c0,0,0,0,0,0c1,0.3,3.2,0.7,3.8-2.2c0,0,1.5-7.7,7.1-10.6c0,0,5.8-1.5,8.1-2.9c2.2-1.5,9.7,2.6,16.1-5.4
			l6.5,6.4c0,0-2.5,3.9,2.1,13.3c0,0-2.1,13.4,0.5,19.1l-0.7,4.6c0,0-0.4,1.4-2.3,2.8c-1.9,1.4-3.4,1.4-3.9,4
			c-0.5,2.6,0.2,2.9,0.2,2.9s0.5,0.1,0.9,0.3c0-1,0.3-2.5,1.2-3.4c0.5-0.5,1.3-0.7,2.1-0.7c1.2,0.1,1.7,0.7,2,1.2c0,0,0,0.1,0,0.1
			c0-0.1,0.1-0.1,0.2-0.2c0.5-0.6,1.2-0.9,2-1c0.9-0.1,1.7,0.2,2.2,0.9c0.2,0.2,0.3,0.5,0.5,0.7c0.1-0.1,0.1-0.2,0.2-0.3
			c0.5-0.6,1.2-0.9,2-1c1-0.1,1.8,0.2,2.4,0.9c0.6,0.6,0.9,1.5,0.9,2.7c0,0.3,0,0.5,0,0.8c0,0,3-0.5,3-2.6c0-0.6,1.4-2.2,0.9-2.6
			c-0.7-0.4-1.6-1.2-0.4-2.2c1.2-1-0.2-10.5-0.7-12.1c0,0,1.3-10.6,2.7-15.3c0,0,0.3-0.4,2.1,0c0,0,8.3,8.5,23.7,6.4
			c0.4,0,0.6,0.3,0.9,0.6c0.6,0.8,0.6,2.3,1.2,3.9c0.2,0.4,0.1,0.9,0,1.3l-2.5,11c0,0-4,3.8-5.7,8.3c0,0-0.5-0.1-1.5,0.3
			c-1,0.4-1.5,2.2-1.5,2.2c-1.3-0.3-5.2,0.1-6.2,3.8c0,0,0.5,0.4,1.2,1c0.5-0.9,1.4-2.3,2.6-2.8c0.7-0.3,1.5-0.2,2.2,0.2
			c0.8,0.4,1.3,1,1.4,1.8c0,0.1,0,0.2,0,0.4c0,0,0.1,0,0.1-0.1c0.7-0.3,1.5-0.2,2.2,0.2c1,0.5,1.3,1.3,1.4,1.8c0,0.2,0,0.4,0,0.5
			c0,0,0.1,0,0.1-0.1c0.7-0.3,1.5-0.2,2.2,0.2c1,0.5,1.3,1.3,1.4,1.8c0.2,1.4-0.7,2.9-1.3,3.7c0.9,0.7,4.8,3,6.2-1.7
			c0.6-2,0.2-3.9,0.1-4.3c0-0.1,0-0.1,0-0.2c0-0.4,0.2-1.4,1.4-1c2.7,1,6-6.8,6.4-8.3c0.2-0.8,5.6-17.8,6.7-21.2
			c-0.6,2,0,9.6,0.1,12c0,0-2.1,3.7-0.9,13.5c0,0,0.1,0.3-0.5,0.6c-0.6,0.2-2.1,3.4-2.1,4.6l0,0.4c0.2,0,0.4,0,0.6,0.1
			c0.9,0.2,1.6,0.7,2,1.4c0.4-0.7,1-1.1,1.9-1.4c1.1-0.3,2-0.2,2.8,0.4c0.3,0.2,0.5,0.4,0.7,0.7c0-0.1,0.1-0.2,0.1-0.2
			c0.4-0.8,1.1-1.4,2-1.7c1-0.3,2-0.1,2.7,0.4c0.9,0.6,1.5,1.8,1.9,3.4c0.2,0.8,0.3,1.8,0.3,2.2l2-0.2c5.3-0.2,5.7-3.3,5.7-3.3
			s1.2-4.7-3.1-7.6c-1.2-0.9,0.8-3,1-11.4c0.2-8.4,0-9.4,0-9.4l0-0.7c0.1-0.2,3.2-6.4,6-12.4c8.1-17.5,3.4-26.8,3.4-26.8
			s-0.3-4.9,3.1-6.2c7-3.1,10.7-12.3,10.7-12.3c4.9-13.4-2-26.1-2-26.1c-6.9-15.8,3.5-22.3,3.5-22.3l0.1-0.1c0,0,2.9-0.8,3.8-4.5
			c0,0-0.2,0.1-0.3,0.2C183.8,164.8,185.5,161.1,180.4,155.4z M56.5,151.6c-0.8,0.4-1.5,0.7-2.2,0.8c-0.7,0.1-1.3,0-1.9-0.2
			c-1.7-0.7-2.1-2.7-2.1-2.7c-0.1-0.3,0.1-0.6,0.4-0.7c0.3-0.1,0.6,0.1,0.7,0.4c0,0,0.4,1.5,1.5,2c0.8,0.4,1.9,0.2,3.1-0.5
			c0.3-0.1,0.6-0.1,0.7,0.2C56.9,151.2,56.8,151.5,56.5,151.6z"/>
	</g>
</g>
</svg>
