<?xml version="1.0" encoding="utf-8"?>
<!-- Generator: Adobe Illustrator 18.1.1, SVG Export Plug-In . SVG Version: 6.00 Build 0)  -->
<svg version="1.1" id="Layer_1" xmlns="http://www.w3.org/2000/svg" xmlns:xlink="http://www.w3.org/1999/xlink" x="0px" y="0px"
	 viewBox="0 0 255 315" enable-background="new 0 0 255 315" xml:space="preserve">
<g opacity="0.15">
	<path fill="#FFFFFF" d="M168.2,132.8c2.9-7.9,5.6-20.5,1.6-36.4c-4.3-17.1-7.8-22.4-9-24.6c-0.6-1-1.1-1.7-1.6-2.2
		c-0.5-0.4-1.2,0-1.1,0.6c0.3,2.4-0.1,5-1.3,6.6c-1.2,1.6-1.7,0.7-1.8,0.2c0-0.1-0.1-0.2-0.1-0.4c0.3-11.1-1.4-22.2-5-32.7
		c-0.6-1.7-3.1-1.5-3.4,0.3c-1.1,7-2.7,13.8-4.7,20.6c2-10.7-2.9-22.2-7.1-32.7c-3.5-8.9-6.5-18-8.9-27.3c-0.5-1.8-3.2-1.7-3.4,0.2
		c-1.4,9.7-4.9,19.2-8.2,28.5c-4.7,13.2-9.2,27.4-6.4,41c-0.9-3.2-2.6-6.2-4.8-8.6c-1.2-1.3-3.3-0.3-3,1.4
		c0.8,5.5-0.5,11.2-2.5,16.5c-2.6,6.9-6.6,13.3-9.1,20.3c-3.9,10.6-4.2,22.3-1.3,33.2c-0.1,1.4-0.2,2.9-0.2,4.3
		c0,2.8,0.3,5.5,0.8,8.2c-0.3,0.1-0.6,0.2-0.9,0.3h0c-2,1-2.7,3.5-1.7,5.4l5.9,11.3c1,2,3.5,2.7,5.4,1.7c0.1-0.1,0.2-0.1,0.3-0.2
		c1.3,1.5,2.7,2.9,4.2,4.2c-0.2,0.1-0.4,0.3-0.5,0.5c-0.8,1.1-0.5,2.5,0.5,3.3l6,4.3c1.1,0.8,2.5,0.5,3.3-0.5
		c0.3-0.4,0.4-0.8,0.4-1.2c5.3,2.5,11.1,3.8,17.3,3.8c6.7,0,13-1.6,18.6-4.4c1.4,1.2,3.5,1.4,5,0.2l10.3-7.5
		c1.8-1.3,2.2-3.8,0.9-5.6c-0.2-0.3-0.4-0.5-0.7-0.7c4.5-6.6,7.1-14.6,7.1-23.1C169.1,138.6,168.8,135.7,168.2,132.8z M92.1,167.3
		c0,0-0.2-0.4-0.3-0.4c-0.7-0.7-6.2-11.5-6.2-11.5s-0.5-1,0.4-0.8c0.8,0.2,5.1,9,6.7,12C93.1,167.3,92.7,167.9,92.1,167.3z
		 M107.8,180.7C107.8,180.7,107.8,180.7,107.8,180.7c-0.5-0.3-6.8-4.9-6.8-4.9s-0.2-0.1-0.3-0.3c0-0.2,0-0.4,0.3-0.3
		c1.5,0.8,5.4,3.8,7,5C108.4,180.5,108.1,180.9,107.8,180.7z M160.1,142.8c0,0.4-0.1,0.8-0.2,1.2c-0.4,1.8-1.5,3.3-3.1,4.3
		c-1.1,0.7-2.4,1.1-3.7,1.1c-0.5,0-1-0.1-1.5-0.2c-1.8-0.4-3.3-1.5-4.3-3.1c-0.2-0.3-0.1-0.6,0.2-0.7c0.3-0.2,0.6-0.1,0.7,0.2
		c0.8,1.3,2.1,2.2,3.7,2.6c1.5,0.3,3.1,0.1,4.4-0.8c1.3-0.8,2.2-2.1,2.6-3.7c0.3-1.5,0.1-3.1-0.8-4.4c-0.2-0.3-0.1-0.6,0.2-0.7
		c0.3-0.2,0.6-0.1,0.7,0.2c0.5,0.8,0.8,1.7,1,2.6c-0.2,0.6-0.5,1.1-0.7,1.5C159.6,142.8,159.9,142.8,160.1,142.8z M163.6,119.5
		c-2.1-2.4-5.7-7.2-7.3-9.2c-0.6-0.7-0.3-1.3,0.4-0.8c0,0,0.3,0.3,0.3,0.4c0.6,0.4,4.1,4.9,6.3,7.7
		C163.5,118.3,163.6,118.9,163.6,119.5z M157.5,139.7c1.5,2.4,0.8,5.5-1.6,7c-2.4,1.5-5.5,0.8-7-1.6c-1.5-2.4-0.8-5.5,1.6-7
		C152.9,136.6,156,137.3,157.5,139.7z M93,117.5c1.9-5.3,4.9-10.2,7-15.5c1.5-4,7.4-13.5,6.8-17.7c-0.2-1.3,1.4-2.1,2.3-1.1
		c1.9,2.1,4.9,8.1,5.9,11.5c-2.3-10.6,1.1-21.7,4.8-32c3.1-8.5,6.3-17.3,6.7-26.2c0-0.7,1-0.8,1.1-0.1c2,8.6,4.7,17.1,7.9,25.3
		c3.2,8,6.9,16.9,5.4,25c1.8-6.1,3.1-12.4,4-18.7c0.1-0.6,0.9-0.7,1.1-0.1c3.5,8.8,5.8,17.9,5.6,27.4c0,0.1,0,0.4,0,0.5
		c0,0.4-0.1,1.3,0.8,0.1c0.9-1.2,1.2-3.2,1-5.1c-0.1-0.5,0.5-0.8,0.9-0.4c0.4,0.4,0.8,0.9,1.3,1.7c0.9,1.7,3.9,5,6.9,18.9
		c0.4,1.9,0.7,3.8,0.9,5.6l-5.3-6.8c-1.3-1.6-3.6-2-5.3-0.9c-4.6-3.5-10-6-15.8-7.3c-0.3-1.9-2-3.3-4-3.3h-12.7c-2.2,0-4,1.8-4,4
		c0,0,0,0,0,0c-10.7,3.2-19.6,10.6-24.8,20.3C91.9,120.8,92.4,119.2,93,117.5z M128.1,158.8c0.9,1.4,0.5,3.2-0.9,4
		c-1.4,0.9-3.2,0.5-4-0.9c-0.9-1.4-0.5-3.2,0.9-4C125.4,157,127.2,157.4,128.1,158.8z M119.1,99.1C119.1,99.1,119.1,99.1,119.1,99.1
		c0.9-0.1,14.4,0,14.4,0s0.4,0,0.7,0.1c0.2,0.2,0.4,0.6-0.2,0.7c-2.9,0.4-11.3,0.1-14.7,0.1C118.6,100,118.5,99.1,119.1,99.1z
		 M136.8,120.5c1.7-1,3.9-0.6,4.9,1.1c1,1.7,0.6,3.9-1.1,4.9c-1.7,1-3.9,0.6-4.9-1.1C134.6,123.8,135.1,121.6,136.8,120.5z
		 M115.8,127.5c0,4.4-3.6,8-8,8c-4.4,0-8-3.6-8-8s3.6-8,8-8C112.2,119.5,115.8,123.1,115.8,127.5z M99.2,155.3
		c-0.1-0.1,0-0.2,0.1-0.2c0.1-0.1,0.2,0,0.2,0.1c0.8,1.2,1.9,2,3.3,2.3c1.4,0.3,2.8,0.1,4-0.7c2.5-1.6,3.2-4.9,1.7-7.3
		c-0.1-0.1,0-0.2,0.1-0.2c0.1-0.1,0.2,0,0.2,0.1c1.7,2.6,0.9,6.2-1.8,7.8c-0.9,0.6-2,0.9-3,0.9c-0.4,0-0.8,0-1.3-0.1
		C101.3,157.5,100,156.6,99.2,155.3z M101.6,148.6c2.1-1.3,4.8-0.7,6.1,1.4c1.3,2.1,0.7,4.8-1.4,6.1c-2.1,1.3-4.8,0.7-6.1-1.4
		C99,152.6,99.6,149.8,101.6,148.6z M107.7,138.1c-5.8,0-10.6-4.7-10.6-10.6c0-0.3,0.2-0.5,0.5-0.5c0.3,0,0.5,0.2,0.5,0.5
		c0,5.2,4.3,9.5,9.5,9.5c5.2,0,9.5-4.3,9.5-9.5c0-0.3,0.2-0.5,0.5-0.5c0.3,0,0.5,0.2,0.5,0.5C118.3,133.4,113.6,138.1,107.7,138.1z
		 M127.6,163.6c-0.6,0.4-1.3,0.6-2,0.6c-0.3,0-0.6,0-0.8-0.1c-1-0.2-1.8-0.8-2.4-1.7c-0.1-0.1,0-0.2,0.1-0.2c0.1-0.1,0.2,0,0.2,0.1
		c0.5,0.8,1.3,1.3,2.2,1.5c0.9,0.2,1.8,0,2.6-0.4c1.6-1,2.1-3.2,1.1-4.8c-0.1-0.1,0-0.2,0.1-0.2c0.1-0.1,0.2,0,0.2,0.1
		C129.9,160.1,129.4,162.5,127.6,163.6z M134.8,126c-0.1-0.1,0-0.2,0.1-0.2c0.1-0.1,0.2,0,0.2,0.1c1.3,2,3.9,2.6,5.9,1.3
		c1-0.6,1.6-1.6,1.9-2.7c0.3-1.1,0.1-2.3-0.6-3.2c-0.1-0.1,0-0.2,0.1-0.2c0.1-0.1,0.2,0,0.2,0.1c0.7,1,0.9,2.3,0.6,3.5
		c-0.3,1.2-1,2.2-2,2.9c-0.8,0.5-1.6,0.7-2.5,0.7C137.1,128.1,135.6,127.4,134.8,126z M138.1,168.2c-0.1,0-0.2-0.1-0.1-0.2
		c0.3-1.1,1-2,2-2.6c1-0.6,2.2-0.7,3.3-0.4c1.1,0.3,2,1,2.6,2c0.6,1,0.7,2.2,0.4,3.3c0,0.1-0.1,0.1-0.2,0.1c0,0,0,0,0,0
		c-0.1,0-0.2-0.1-0.1-0.2c0.3-1,0.1-2.1-0.4-3c-0.5-0.9-1.4-1.6-2.4-1.8c-1-0.3-2.1-0.1-3,0.4c-0.9,0.5-1.6,1.4-1.8,2.4
		C138.3,168.2,138.2,168.2,138.1,168.2z M141.3,172.3c-1.8-0.5-2.8-2.3-2.3-4.1c0.5-1.8,2.3-2.8,4.1-2.3c1.8,0.5,2.8,2.3,2.3,4.1
		C144.9,171.7,143.1,172.8,141.3,172.3z M162.3,169.7C162.3,169.7,162.3,169.7,162.3,169.7c-0.7,0.6-11.6,8.5-11.6,8.5
		s-0.3,0.3-0.6,0.3c-0.3,0-0.7-0.3-0.2-0.7c2.1-2,9-6.8,11.8-8.7C162.1,168.7,162.7,169.3,162.3,169.7z"/>
	<g>
		<path fill="#FFFFFF" d="M214.3,309.5c-1.3,1.6-3.7,4.4-5.3,5.4c-0.1,0-0.1,0.1-0.2,0.1h20.4c-13.3-3.6-12.4-7-12.4-7
			C215.6,306.8,214.7,309,214.3,309.5z"/>
		<path fill="#FFFFFF" d="M4.5,315c0.1-0.5,0.2-1,0.4-1.5c6.2-10.9,14-21.1,23.1-30.3c26.1-26.1,60.6-40.7,97.3-41.5
			c0,0.1,0.1,0.3,0.1,0.4c0.3,1.3-0.1,2.7-1,3.7c-0.9,1-2.2,2.2-3.5,3c-2.4,1.5-3.3,2.7-6.5,0.6c-3.3-2.1-5.4-1.2-9.5-0.3
			c-2.3,0.5-4.1,0-5.3-0.5c-1.2-0.5-2.5-0.5-3.7,0.1c-2,1.1-5.2,3-8.3,5.5c-5.1,4.2-1.2,10.4,2.7,11c3.4,0.5,6.5-4.1,7.3-5.4
			c0.1-0.2,0.3-0.4,0.4-0.6c2.2-2.4,4.4-2.5,5.8-2.2c1.2,0.3,2.5-0.1,3.4-0.9c0.8-0.7,1.5-1.2,2.1-1.7c1.5-1,3.5-0.9,4.9,0.2
			c1.1,0.9,2.5,2.2,4.1,4.2c3.6,4.5,0.6,8,0.6,12.2c0,4.2-5.1,8.9-8.6,7.4c-3.6-1.5-7.7-2.5-9.7,0.5c-2.1,3-13.9,2.5-15.9,3.3
			c-7.9,3.5-6.5,5.6-12.1,4.7c-4.8-0.8-8.5,2.7-10.3,3.6c-1.8,0.9-5.7,1.9-8.3,4.5c-2.7,2.7-1.5,10-1.5,13.2c0,3.3-2.9,4.5-4.9,2.8
			c-1.5-1.2,0.2-10.1-3.3-13.4c-3.6-3.3-2.5-2.9-10.3-0.2c-3.9,1.3-4.7,2.9-6.2,5.9c-3.2,6.7-7.3,7.3-7.6,8
			c-0.5,1.2-0.8,2.2-0.8,3.2h177.7c-2.3-3.1-2.8-6.1-2.8-6.1c-0.3-1.7-0.2-4.2,0-4.5c0.6-0.9,0.6-1,2.7-1.9c1.1-0.5,2.8-0.9,5.5-2.1
			c5.4-2.5,4.9-2.7,7.1-3.6c2.2-0.9,3.6-4.9,2-5.8c-1.6-0.9,0-3.8-0.7-6.7c-0.7-2.9-0.9-2.9-4.5-3.1c-3.6-0.2-2.5-2.5-4.2-4
			c-1.8-1.6-2,0-5.1-0.7c-3.1-0.7-2.7-6-3.8-10.9c0,0,0-0.1,0-0.1c-0.6-2.7,1.4-5.4,4.1-5.7c11.2,6.3,21.6,14.2,31,23.5
			c9.5,9.5,17.6,20.2,23.9,31.7h2.6c-6.6-12.1-14.9-23.3-24.9-33.3c-27.2-27.2-63.4-42.2-101.9-42.2c-38.5,0-74.7,15-101.9,42.2
			c-10,10-18.4,21.2-24.9,33.3H4.5z M156.5,261.1c-0.5,0.5-0.9,0.9-1.2,1.3c-0.4,0.6-1.2,0.9-2,0.8c-1.5-0.4-4.1-0.8-5.2-1.8
			c-1.5-1.3,1.1-2.4,1.1-2.4s5-1.9,6.4-1.5C157.2,258,157.8,259.9,156.5,261.1z M187.5,285c0.3-0.4,0.7-0.6,1.1-0.8
			c0.6-0.2,1.5-0.9,0.8-2.6c0-0.1-0.1-0.2-0.1-0.3c-0.6-2,1.5-3.7,3.4-2.9c1.9,0.8,3.5,3.1,4.5,3.6c1.3,0.7,3.8,3.8,6.3,7.4
			c2.5,3.6-1.6,7.1-5.6,7.8c-4,0.7-3.6-3.8-3.8-7.1c-0.2-2.5-1.1-2.3-1.5-2c-0.3,0.2-0.6,0.3-0.9,0.3c-1.1,0.2-3.1,0.3-4.2-0.8
			C186.5,286.7,187,285.7,187.5,285z M130,242.6c0.1-0.3,0.2-0.5,0.2-0.8c9.3,0.1,18.4,1.1,27.2,3c-0.2,0.7-0.5,1.4-0.9,2.1
			c-1.5,2.1-3.1,3.4-4.6,4c-2.7,1.1-3.5-0.2-5.4,1.6c-0.5,0.5-3.2,8.7-5.2,12c-1,1.7-5.1,2.7-6.4,2.4c-1.2-0.4-2.6-1.5-3.3-2.5
			c-2.4-3.7-2-3.8-3.8-9.4C125.7,248.2,128.8,245.9,130,242.6z"/>
	</g>
</g>
</svg>
