<?xml version="1.0" encoding="utf-8"?>
<!-- Generator: Adobe Illustrator 18.1.1, SVG Export Plug-In . SVG Version: 6.00 Build 0)  -->
<svg version="1.1" id="Layer_1" xmlns="http://www.w3.org/2000/svg" xmlns:xlink="http://www.w3.org/1999/xlink" x="0px" y="0px"
	 viewBox="0 0 190 316" enable-background="new 0 0 190 316" xml:space="preserve">
<g>
	<path opacity="0.15" fill="#FFFFFF" d="M55.6,157.6c-0.1-14-0.3-86.3-0.6-100.2c0-0.4-0.3-0.9-0.6-0.7c-0.9,11.3-1.2,54-0.9,65.4
		c0.1,2.3,0.1,31.6-0.2,33.9c-0.2,1.2-0.5,2.5,0.1,3.6c0.6,1.1,2.5,1.3,2.9,0.1C56.2,158.8,56.2,158.2,55.6,157.6z"/>
	<path opacity="0.15" fill="#FFFFFF" d="M15.2,150.9c0,0.5-0.1,1.3,0.1,1.8c0,0.1,0.1,0.1,0.2,0.2c0.4,0.4,1.3,0.1,1.3-0.5
		c0.5-6.2,0.3-17.1-0.1-23.3c0-0.4-0.1-0.4-0.1-0.4c-0.1,0-0.1,0.1-0.1,0.4L15.2,150.9z"/>
	<path opacity="0.15" fill="#FFFFFF" d="M81.9,50.1c0,1-0.2,2.3,0.2,3.2c0.1,0.2,0.1,0.3,0.3,0.4c0.7,0.8,2.3,0.2,2.4-0.9
		c0.9-11.4,0.5-39.7-0.2-51.1C84.6,1,84.5,1,84.3,1c-0.1,0-0.2,0.2-0.3,0.7L81.9,50.1z"/>
	<path opacity="0.15" fill="#FFFFFF" d="M84.5,219.3c-5.1,0.3-10,0.6-15,0.9c-4.9,0.3-9.9,0.6-14.9,0.9c0-0.8,0-1.5-0.1-2.2
		c-0.2-1.1,0.1-1.6,1.2-2c9.1-3.4,14.5-13.1,12.4-22.6c-2.4-10.8-12.8-17.5-23.8-15.2c-11.1,2.4-18,14.3-14.5,25
		c2.4,7.3,7.4,11.8,14.9,13.7c0.3,0.1,0.7,0.4,0.7,0.6c0.1,1.1,0.2,2.1,0.2,3.3c-10,0.6-20,1.2-29.9,1.8
		c-4.2,30.8-8.3,61.5-12.5,92.3c35-2.1,69.8-4.2,104.7-6.3C100.1,279.4,92.3,249.4,84.5,219.3z M37.9,199
		c-0.4-5.9,4.2-11.1,10.2-11.5c5.9-0.3,11.1,4.3,11.4,10.2c0.3,6-4.2,11.1-10.2,11.4C43.4,209.5,38.3,205,37.9,199z M77.1,300.4
		l-5.3-6l-1.6,2l0.5,4.6l-3.3,0.3l-1.5-15.1l3.3-0.3l0.7,6.6l5.5-7.2l4-0.4l-5.5,7l7.3,8L77.1,300.4z M87.8,302.9
		c-1.9,0.2-3.7-0.1-5.2-0.7l0.9-2.6c1.3,0.5,2.5,0.8,4,0.7c2.2-0.2,3.2-1.4,3-3.5l-0.1-0.6c-0.9,1.3-1.8,2.1-3.6,2.3
		c-2.7,0.3-5.3-1.4-5.7-4.9l0,0c-0.4-3.5,1.9-5.6,4.6-5.9c1.8-0.2,2.9,0.5,3.9,1.3l-0.2-1.5l3.3-0.3l0.9,9c0.2,2.1-0.1,3.6-1,4.7
		C91.7,302,90,302.6,87.8,302.9z"/>
	<path opacity="0.15" fill="#FFFFFF" d="M90,292.7c-0.2-1.6-1.5-2.6-3.1-2.4c-1.6,0.2-2.7,1.4-2.5,3l0,0c0.2,1.6,1.5,2.6,3.1,2.4
		C89,295.5,90.2,294.3,90,292.7L90,292.7z"/>
	<g opacity="0.15">
		<path fill="#FFFFFF" d="M185.4,103.2c-4.1-0.8-8.1-1.5-12.2-2.3c-4-0.8-8-1.5-12.1-2.3c0.1-0.7,0.3-1.2,0.3-1.8
			c0.1-0.9,0.4-1.2,1.4-1.3c8-0.9,14.2-7.6,14.5-15.6c0.3-9.2-6.7-16.6-16-17c-9.3-0.3-17.3,7.8-16.7,17.1c0.4,6.3,3.6,11,9.2,13.9
			c0.2,0.1,0.5,0.4,0.5,0.6c-0.1,0.9-0.3,1.7-0.5,2.7c-8.2-1.5-16.2-3.1-24.3-4.6c-9.5,23.8-19.1,47.6-28.6,71.4
			c28.4,5.4,56.7,10.7,85.1,16.1C185.8,154.5,185.6,128.9,185.4,103.2z M152.2,77.6c0.9-4.8,5.6-8,10.4-7.1c4.8,0.9,8,5.6,7.1,10.5
			c-0.9,4.9-5.6,8-10.4,7.1C154.5,87.1,151.3,82.5,152.2,77.6z M161.9,165.7l-3.2-6.7l-1.9,1.4l-0.8,4.2l-3-0.6l2.6-13.8l3,0.6
			l-1.1,6l6.7-5l3.7,0.7l-6.7,4.8l4.4,9.1L161.9,165.7z M177.7,166.2c-0.4,1.9-1.1,3.2-2.1,3.9c-1.2,0.8-2.8,0.9-4.8,0.6
			c-1.7-0.3-3.3-1-4.5-2l1.5-2.1c1,0.8,2,1.4,3.4,1.6c2.1,0.4,3.2-0.4,3.6-2.3l0.1-0.5c-1.1,0.9-2.2,1.4-3.8,1.1
			c-2.5-0.5-4.4-2.7-3.8-5.8l0,0c0.6-3.2,3.2-4.5,5.6-4.1c1.6,0.3,2.5,1.2,3.1,2.2l0.3-1.4l3,0.6L177.7,166.2z"/>
		<path fill="#FFFFFF" d="M173.3,159.2c-1.5-0.3-2.8,0.5-3,2l0,0c-0.3,1.5,0.6,2.7,2.1,2.9c1.5,0.3,2.8-0.5,3-2l0,0
			C175.7,160.7,174.7,159.5,173.3,159.2z"/>
	</g>
</g>
</svg>
