<?xml version="1.0" encoding="utf-8"?>
<!-- Generator: Adobe Illustrator 18.1.1, SVG Export Plug-In . SVG Version: 6.00 Build 0)  -->
<svg version="1.1" id="Layer_1" xmlns="http://www.w3.org/2000/svg" xmlns:xlink="http://www.w3.org/1999/xlink" x="0px" y="0px"
	 viewBox="0 0 163.1 318" enable-background="new 0 0 163.1 318" xml:space="preserve">
<g opacity="0.15">
	<g>
		<path fill="#FFFFFF" d="M163.1,187.8c-5.4-6.9-10.7-13.5-16-20.3c-1.2-1.5-2.3-1.7-4-0.9c-5.2,2.5-10.5,4.9-15.7,7.4
			c-1.3,0.6-2.6,1.5-3.7,2.5c-11.6,10.8-23.1,21.6-34.6,32.4c-0.8,0.8-2.1,1.4-3.3,1.5c-2.9,0.5-5.8,0.7-8.7,0.9
			c-1.5,0.1-2.6,0.6-3.6,1.6c-19,17.9-38,35.7-56.9,53.5c-0.6,0.5-1.1,1.1-1.6,1.7c-2.3,3.3-4.6,6.7-7,10c-0.9,1.2-1.2,2.5-1,4
			c0.7,5.6,1.3,11.2,2,16.7c0.1,0.9,0.6,2,1.2,2.6c4.5,4.9,9.2,9.8,13.7,14.7c0.4,0.4,0.8,0.8,1.2,1.2c2.8-2.2,2.8-2.2,0.8-4.8
			c-0.1-0.2-0.3-0.4-0.4-0.6c-6.5-10-5-22.2,3.7-30.3c31.8-29.9,63.6-59.8,95.5-89.7c0.5-0.5,1.1-1,1.6-1.4
			c6.9-6.1,17.1-7.5,25.3-3.4c2.5,1.3,4.8,3.1,7.3,4.7C160.2,190.6,161.6,189.3,163.1,187.8z M64.6,215.4
			c-5.3-5.7-10.7-11-15.6-16.7c-3-3.5-6.1-5.6-10.8-4.8c-1.2,0.2-2.1,0.4-3,1.3c-9.6,9-19,18.2-28.8,27c-3.8,3.4-6.3,7-6.4,12.1
			c0,1.1,0,2,0.9,2.9c6,6.3,11.9,12.6,17.8,18.9c0.4,0.4,0.8,0.8,1.3,1.2C34.9,243.3,49.6,229.4,64.6,215.4z M67.3,198
			c2.1-2.2,4.3-4.4,6.3-6.6c2.5-2.8,4.5-5.9,7.2-8.4c14.9-14.2,29.8-28.2,44.8-42.3c0,0,0,0,0,0c0.7-0.7,0.7-1.8,0.1-2.5l-3.9-4.2
			c-0.7-0.7-1.8-0.8-2.6-0.1c-0.1,0.1-0.2,0.2-0.3,0.3c-8.8,8.2-17.4,16.6-26.4,24.7c-7.3,6.6-13.6,14.3-22.1,19.6
			c-2.6,1.6-4.9,3.9-7.2,5.9c-1.6,1.4-3.1,2.9-4.7,4.4c0.3,0.4,0.6,0.9,1,1.5l-7.3,6.9l6.1,6.5l7.3-6.9
			C66.2,197.2,66.7,197.6,67.3,198z"/>
		<path fill="#FFFFFF" d="M163.1,187.8c-1.6,1.5-3,2.8-4.2,4c-2.5-1.6-4.7-3.4-7.3-4.7c-8.3-4.1-18.4-2.7-25.3,3.4
			c-0.5,0.5-1.1,1-1.6,1.4c-31.8,29.9-63.6,59.8-95.5,89.7c-8.7,8.2-10.2,20.3-3.7,30.3c0.1,0.2,0.3,0.4,0.4,0.6
			c1.9,2.6,1.9,2.6-0.8,4.8c-0.4-0.4-0.8-0.7-1.2-1.2c-4.6-4.9-9.2-9.7-13.7-14.7c-0.6-0.7-1.1-1.7-1.2-2.6
			c-0.7-5.6-1.3-11.2-2-16.7c-0.2-1.5,0.1-2.8,1-4c2.4-3.3,4.6-6.7,7-10c0.4-0.6,1-1.2,1.6-1.7c19-17.8,38-35.7,56.9-53.5
			c1.1-1,2.1-1.6,3.6-1.6c2.9-0.2,5.9-0.4,8.7-0.9c1.2-0.2,2.4-0.7,3.3-1.5c11.6-10.8,23.1-21.6,34.6-32.4c1.1-1,2.4-1.8,3.7-2.5
			c5.2-2.5,10.5-4.9,15.7-7.4c1.7-0.8,2.9-0.6,4,0.9C152.4,174.3,157.7,181,163.1,187.8z"/>
		<path fill="#FFFFFF" d="M64.6,215.4c-14.9,14-29.7,27.9-44.6,41.9c-0.4-0.4-0.9-0.8-1.3-1.2c-5.9-6.3-11.9-12.7-17.8-18.9
			C0,236.2,0,235.3,0,234.2c0.1-5.1,2.6-8.7,6.4-12.1c9.8-8.8,19.3-17.9,28.8-27c0.9-0.8,1.8-1.1,3-1.3c4.7-0.8,7.8,1.3,10.8,4.8
			C53.9,204.4,59.3,209.7,64.6,215.4z"/>
		<path fill="#FFFFFF" d="M67.3,198c-0.6-0.5-1.1-0.8-1.7-1.3l-7.3,6.9l-6.1-6.5l7.3-6.9c-0.4-0.7-0.8-1.1-1-1.5
			c1.6-1.5,3.1-3,4.7-4.4c2.4-2,4.6-4.2,7.2-5.9c8.5-5.3,14.7-13,22.1-19.6c9-8,17.6-16.4,26.4-24.7c0.1-0.1,0.2-0.2,0.3-0.3
			c0.7-0.7,1.9-0.6,2.6,0.1l3.9,4.2c0.7,0.7,0.7,1.9-0.1,2.5c0,0,0,0,0,0c-14.9,14.1-29.9,28.1-44.8,42.3c-2.7,2.5-4.7,5.7-7.2,8.4
			C71.6,193.6,69.4,195.8,67.3,198z"/>
		<g>
			<path fill="#FFFFFF" d="M151.9,192.4c-8-5.1-17.4-4.2-24.5,2.5c-31.7,29.7-63.3,59.5-94.9,89.2c-1.1,1.1-2.2,2.2-3.1,3.5
				c-6,8.1-4,20.6,4.1,26.4c8.2,5.9,18.2,5.3,25.6-1.7c15.8-14.8,31.6-29.7,47.4-44.5c15.5-14.6,31.1-29.2,46.6-43.8
				c1.1-1.1,2.2-2.2,3.2-3.4C163.4,212.1,161.3,198.4,151.9,192.4z M152.2,218.5c-6.7,6.4-13.5,12.7-20.3,19.1
				c-9.5,8.9-19,17.9-28.5,26.8c-16.1,15.1-32.1,30.2-48.2,45.3c-6,5.7-15.3,5.6-20.8-0.2c-5.9-6.2-5.8-15.5,0.3-21.4
				c5.4-5.1,10.8-10.2,16.2-15.3c26.6-25,53.2-50,79.9-75c6-5.7,13.9-6,20.4-1C157.7,201.9,158.3,212.7,152.2,218.5z"/>
			<path fill="#FFFFFF" d="M151.1,196.7c-6.5-5-14.3-4.6-20.4,1c-26.6,25-53.2,50-79.9,75c-5.4,5.1-10.9,10.1-16.2,15.3
				c-6.1,5.9-6.2,15.2-0.3,21.4c5.5,5.8,14.8,5.9,20.8,0.2c16.1-15.1,32.1-30.2,48.2-45.3c9.5-8.9,19-17.9,28.5-26.8
				c6.8-6.4,13.6-12.7,20.3-19.1C158.3,212.7,157.7,201.9,151.1,196.7z M55.2,306.8c-5.2,4.9-13.2,4.6-18.1-0.6
				c-4.8-5.1-4.5-13.3,0.6-18c5.1-4.7,13.3-4.5,18.1,0.6C60.6,293.8,60.3,301.9,55.2,306.8z M77.5,285.7c-5.3,4.8-13.3,4.4-18-0.7
				c-4.8-5.3-4.5-13.3,0.7-18c5.1-4.7,13.4-4.5,18.1,0.6C83.1,272.8,82.7,281,77.5,285.7z M99.8,264.8c-5.2,4.8-13.2,4.6-18-0.5
				c-4.8-5-4.5-13.3,0.6-18.1c5.1-4.9,13.5-4.6,18.2,0.6C105.3,252.1,105,260,99.8,264.8z M123.4,242.6c-5.3,4.8-13.2,4.5-18-0.6
				c-4.8-5.2-4.5-13.5,0.7-18.2c5.2-4.6,13.2-4.4,18,0.6C128.9,229.6,128.6,237.8,123.4,242.6z M145.7,221.7
				c-5.2,4.9-13.5,4.6-18.2-0.6c-4.7-5.2-4.4-13.4,0.7-18.1c5.2-4.8,13.3-4.5,18,0.7C151.1,208.9,150.8,216.9,145.7,221.7z"/>
		</g>
	</g>
	<path fill="#FFFFFF" d="M13.4,162.4C13.3,151,13.2,83,12.9,71.6c0-0.3-0.3-0.8-0.5-0.6c-0.7,9.3-1,53-0.7,62.3
		c0.1,1.9,0.1,25.9-0.2,27.8c-0.2,1-0.4,2.1,0.1,2.9c0.5,0.9,2.1,1.1,2.3,0.1C14,163.4,13.9,163,13.4,162.4z"/>
	<path fill="#FFFFFF" d="M50.8,40.2c0,0.8-0.1,1.9,0.3,2.6c0.1,0.1,0.1,0.2,0.2,0.3c0.6,0.7,1.9,0.1,1.9-0.8
		c0.3-12.8-0.6-32.5-1.5-41.8C51.7,0,51.7,0,51.5,0c-0.1,0-0.2,0.2-0.2,0.6L50.8,40.2z"/>
	<path fill="#FFFFFF" d="M132.5,114.7c0,0.8-0.1,1.9,0.3,2.6c0.1,0.1,0.1,0.2,0.2,0.3c0.6,0.7,1.9,0.1,1.9-0.8
		c0.3-12.8-0.6-73.2-1.5-82.5c-0.1-0.6-0.1-0.6-0.2-0.6c-0.1,0-0.2,0.2-0.2,0.6L132.5,114.7z"/>
</g>
</svg>
