<?xml version="1.0" encoding="utf-8"?>
<!-- Generator: Adobe Illustrator 18.1.1, SVG Export Plug-In . SVG Version: 6.00 Build 0)  -->
<svg version="1.1" id="Layer_1" xmlns="http://www.w3.org/2000/svg" xmlns:xlink="http://www.w3.org/1999/xlink" x="0px" y="0px"
	 viewBox="0 0 174.5 317.1" enable-background="new 0 0 174.5 317.1" xml:space="preserve">
<g opacity="0.15">
	<path fill="#FFFFFF" d="M88.9,135.4L85,109.8c-0.6-3.7-4.1-6.3-7.7-5.7L5.8,115c-3.7,0.6-6.3,4.1-5.7,7.7L4,148.3
		c0.6,3.7,4,6.3,7.7,5.7l71.5-10.9C86.9,142.6,89.4,139.1,88.9,135.4z M35.6,143.1L17,145.9c-3.7,0.6-7.2-2-7.7-5.7l-1.7-11.4
		c-0.6-3.7,2-7.2,5.7-7.7l18.6-2.8c3.7-0.6,7.2,2,7.7,5.7l1.7,11.4C41.9,139,39.3,142.5,35.6,143.1z M75.5,137l-18.6,2.8
		c-3.7,0.6-7.2-2-7.7-5.7l-1.7-11.4c-0.6-3.7,2-7.2,5.7-7.7l18.6-2.8c3.7-0.6,7.2,2,7.7,5.7l1.7,11.4C81.8,133,79.2,136.5,75.5,137z
		"/>
	<path fill="#FFFFFF" d="M169.4,206.2l-70.1-17.7c-3.6-0.9-7.3,1.3-8.3,4.9l-6.3,25.1c-0.9,3.6,1.3,7.3,2.4,8.3l70.1,17.7
		c6.2,0.9,9.9-1.3,10.8-4.9l6.3-25.1C175.2,210.8,173,207.1,169.4,206.2z M127,209.9l-2.8,11.2c-0.9,3.6-4.6,5.8-8.3,4.9l-18.3-4.6
		c-3.6-0.9-5.8-4.6-4.9-8.3l2.8-11.2c0.9-3.6,4.6-5.8,8.3-4.9l18.3,4.6C125.7,202.5,127.9,206.2,127,209.9z M166.1,219.8l-2.8,11.2
		c-0.9,3.6-4.6,5.8-8.3,4.9l-18.3-4.6c-3.6-0.9-5.8-4.6-4.9-8.3l2.8-11.2c0.9-3.6,4.6-5.8,8.3-4.9l18.3,4.6
		C164.8,212.4,167,216.1,166.1,219.8z"/>
	<path fill="#FFFFFF" d="M99.1,306.2l-1.4-25.8c-0.2-3.7-3.4-6.6-7.2-6.4l-72.2,3.8c-3.7,0.2-6.6,3.4-6.4,7.2l1.4,25.8
		c0.2,3.7,3.4,6.6,7.2,6.4l72.2-3.8C96.4,313.1,99.3,309.9,99.1,306.2z M45.3,308.6l-18.8,1c-3.7,0.2-7-2.7-7.2-6.4l-0.6-11.5
		c-0.2-3.7,2.7-7,6.4-7.2l18.8-1c3.7-0.2,7,2.7,7.2,6.4l0.6,11.5C52,305.2,49.1,308.4,45.3,308.6z M85.6,306.5l-18.8,1
		c-3.7,0.2-7-2.7-7.2-6.4l-0.6-11.5c-0.2-3.7,2.7-7,6.4-7.2l18.8-1c3.7-0.2,7,2.7,7.2,6.4l0.6,11.5
		C92.3,303.1,89.4,306.3,85.6,306.5z"/>
	<path fill="#FFFFFF" d="M115.3,163.1c-0.1-15.2-0.3-94-0.7-109.2c0-0.4-0.3-1-0.7-0.8c-1,12.3-1.3,58.9-1,71.2
		c0.1,2.6,0.2,34.4-0.2,36.9c-0.2,1.3-0.5,2.7,0.1,3.9c0.6,1.2,2.8,1.4,3.1,0.2C116,164.4,115.9,163.8,115.3,163.1z"/>
	<path fill="#FFFFFF" d="M125.7,178.7c0,0.6,0,1.2,0.2,1.8c0,0,0,0,0,0c0.3,0.7,1.4,0.5,1.5-0.3c0.5-5.8-0.2-25.2-0.2-31
		c0-1-0.3-1.1-0.3-0.1L125.7,178.7z"/>
	<path fill="#FFFFFF" d="M47.5,258.8c-0.1-15.2-0.3-65.6-0.7-80.9c0-0.4-0.3-1-0.7-0.8c-1,12.3-1.3,30.5-1,42.9
		c0.1,2.6,0.2,34.4-0.2,36.9c-0.2,1.3-0.5,2.7,0.1,3.9c0.6,1.2,2.8,1.4,3.1,0.2C48.2,260.1,48.2,259.4,47.5,258.8z"/>
	<path fill="#FFFFFF" d="M55.8,1.2c-0.2,10,0.4,21,0.2,31c-0.1,3.3-0.1,6.5-0.2,9.8c-0.2,10.1-1.1,22-0.6,30.6c0.1,1,0.3,1.6,2,1.7
		l0,0c0.6,0,1-0.6,1-1.8L56.4,1c0,0,0-0.3,0-0.3C56.3-0.5,55.9-0.1,55.8,1.2z"/>
	<path fill="#FFFFFF" d="M66.9,55.1c0,0.6-0.1,1.2,0.2,1.7c0.1,0.2,0.2,0.3,0.3,0.5c0.4,0.4,1.1,0.2,1.2-0.4
		c0.6-7.1,0.6-23.5,0.4-30.6c0-0.9-0.5-0.7-0.6,0.1L66.9,55.1z"/>
</g>
</svg>
