<?xml version="1.0" encoding="utf-8"?>
<!-- Generator: Adobe Illustrator 18.1.1, SVG Export Plug-In . SVG Version: 6.00 Build 0)  -->
<svg version="1.1" id="Layer_1" xmlns="http://www.w3.org/2000/svg" xmlns:xlink="http://www.w3.org/1999/xlink" x="0px" y="0px"
	 viewBox="0 0 190.1 316.6" enable-background="new 0 0 190.1 316.6" xml:space="preserve">
<g opacity="0.15">
	<path fill="#FFFFFF" d="M25.5,49.2C25.4,33.1,25.2,17,24.8,0.9c0-0.4-0.4-1.1-0.7-0.8c-1,13-1.4,26.1-1,39.1
		c0.1,2.7,0.2,5.4-0.3,8.1c-0.2,1.4-0.6,2.9,0.1,4.1c0.7,1.2,2.9,1.5,3.3,0.2C26.3,50.6,26.2,49.9,25.5,49.2z"/>
	<path fill="#FFFFFF" d="M85.7,23.5c0-1.7,0.4-3.2,1.2-1.7c1.7,32.9,2.7,45.5,1.9,78.5c0,2.1-3.2,2.1-3.2,0.1c0,0,0,0,0-0.1
		C84.9,68.2,85.5,55.5,85.7,23.5z"/>
	<path fill="#FFFFFF" d="M145.2,125.8c0.6-0.4,0.7-1.1,0.7-1.8c1.4-17.1,1.3-34.3-0.1-51.4c-0.8,0-1.1,1-1.1,1.7
		c-1.6,15.9,3,32.3-1.3,47.7c-0.2,0.9-0.5,1.8-0.3,2.7C143.3,125.6,144.4,126.3,145.2,125.8z"/>
	<path fill="#FFFFFF" d="M188.5,182.2c-5.9-6.9-24.3-22.2-24.3-22.2s-9.8-6.7-20.2-1.6c-7.9,3.9-22.7-0.8-30-5.5
		c-6.4-4.1-65.4-43.5-78.8-31.4c0,0-5.4,4.1-2.7,12.8c0.1,0.4,0.4,1,0.7,1.7l-20.4,13.5l0,19.2l3.4,3.7l0,0l0,0l-4.8,3.8l-0.8,0.6
		c-0.1,0.1-0.1,0.1-0.2,0.2c-0.4,0.5-0.4,1.1-0.1,1.6l0,0l0,0l-3.9,3.3c-0.2-0.1-0.5-0.1-0.7-0.1l-1.8,0l-0.8,0l0,0l-0.6,0
		c-1.5,0-2.3,0.2-2.3,1.7v0.3c0,0.5,0,0.5,0,0.8v38.8c0,1.5,1.2,2.7,2.7,2.7h2.9c1.5,0,2.7-1.2,2.7-2.7v-20.4l77.5,85.6v25.4
		c0,1.5,1.2,2.7,2.7,2.7h5.9c1.5,0,2.7-1.2,2.7-2.7v-27.4l64.3-50.8v24.1c0,1.5,1.2,2.7,2.7,2.7h5.9c1.5,0,2.7-1.2,2.7-2.7v-33
		l10.1-8l-0.5-22.9c0,0,0,0,0,0C184.3,194.8,193.8,188.5,188.5,182.2z M16.1,152.8l19.5-13.3c0,0,27.4,50.3,60.5,98.1L16.1,152.8z
		 M8.3,187.3v-2.8c0-0.8-0.4-1.5-0.9-2l0,0l0,0l3.9-3.3c0.3,0,0.7-0.1,0.9-0.3l5.7-4.6l0,0l0,0l6,6.5l0,0l0,0l-4.9,3.8l-1.2,0.9
		c-0.1,0.1-0.1,0.1-0.2,0.2c-0.4,0.4-0.4,1-0.2,1.5l0,0l0,0l-5.1,4.4L8.3,187.3z M13.2,192.5L13.2,192.5L13.2,192.5l5.2-4.5
		c0.4,0.1,0.8,0,1.2-0.2l6.1-5l0,0l0,0l6.2,6.7l-5.9,4.7c-0.4,0.3-0.6,0.9-0.5,1.4l0,0l0,0l-5.3,4.4L13.2,192.5z M20.9,200.7
		L20.9,200.7L20.9,200.7l5.2-4.3c0.5,0.2,1,0.2,1.4-0.1l6-4.8l0,0l0.1-0.1l6.8,7.4l-0.1,0.1l0,0l-3.5,3l-1.5,1.3
		c-0.4,0.4-0.6,1-0.4,1.5l0,0l0,0l-5.7,4.9L20.9,200.7z M30,210.3L30,210.3L30,210.3l5.7-4.9c0.5,0.2,1,0.1,1.4-0.2l0.9-0.8l4.2-3.7
		l6.6,7.2l-5,4.3c-0.4,0.4-0.6,1-0.4,1.5l0,0l0,0l-5.5,5.1L30,210.3z M38.6,219.5L38.6,219.5L38.6,219.5l5.5-5.1
		c0.5,0.2,1,0.2,1.4-0.2l1.2-1l3.9-3.4l7.4,8l-4.9,4.5c-0.4,0.4-0.5,0.9-0.3,1.4l0,0l0,0l-5.5,4.9L38.6,219.5z M47.9,229.3
		L47.9,229.3L47.9,229.3l5.5-4.9c0.5,0.2,1.1,0.1,1.5-0.2l4.7-4.5l0,0l0.1-0.1l6.8,7.4l-0.2,0.1l0,0l-3.4,3.1L62,231
		c-0.4,0.4-0.5,0.9-0.4,1.4l0,0l0,0l-5.9,5.3L47.9,229.3z M56.5,238.5L56.5,238.5L56.5,238.5l5.8-5.3c0.5,0.2,1.1,0.2,1.5-0.2l4.2-4
		l0,0l0.2-0.1l7.9,8.6l-4.9,4.5c-0.4,0.4-0.5,1-0.3,1.4l0,0l0,0l-5.1,4.8L56.5,238.5z M66.5,249.1L66.5,249.1L66.5,249.1l5.2-4.8
		c0.4,0.1,0.9,0,1.3-0.3l4.7-4.4l0,0l0.2-0.2l7.3,8l-5,4.4c-0.4,0.3-0.5,0.8-0.4,1.3l0,0l0,0l-5.2,4.7L66.5,249.1z M75.3,258.4
		L75.3,258.4L75.3,258.4l5.1-4.6c0.5,0.3,1.1,0.2,1.5-0.1l4.7-4.3l0,0l0.2-0.2l8,8.6l-0.2,0.2v0l-3.6,3.2l-0.2,0.2
		c-0.4,0.4-0.5,0.9-0.4,1.4l0,0l0,0l-6,5.3L75.3,258.4z M96.2,273.2c-0.5-0.4-1.1-0.7-1.8-0.7h-5.9l-3.3-3.5l0,0l0,0l6-5.3
		c0.5,0.2,1,0.1,1.4-0.2l3.8-3.4l0,0l0.2-0.2l7,7.6L96.2,273.2z"/>
</g>
</svg>
