<?xml version="1.0" encoding="utf-8"?>
<!-- Generator: Adobe Illustrator 18.1.1, SVG Export Plug-In . SVG Version: 6.00 Build 0)  -->
<svg version="1.1" id="Layer_1" xmlns="http://www.w3.org/2000/svg" xmlns:xlink="http://www.w3.org/1999/xlink" x="0px" y="0px"
	 viewBox="0 0 239 316.4" enable-background="new 0 0 239 316.4" xml:space="preserve">
<g opacity="0.15">
	<path fill="#FFFFFF" d="M86.5,219.7"/>
	<path fill="#FFFFFF" d="M231.4,245.2c-8.6-10.7-24.7-29.3-37.1-34.6c0,0,1.6,0.2,1.9-4l3.3-0.6c1.7-0.4,2.9-1.3,3.7-2.2
		c1.2-1.3,1.9-3.1,1.9-4.9c0.3-16.4,2.6-28.8,2.6-28.8c2-9-2.1-14.3-4.6-15.8c-0.6-0.3-1.7-1.8-2-2.3c-1.3-2.1-2.8-5-3.7-7.4
		c-0.1-0.3-0.6-0.3-0.7,0c-0.8,2.2-1.9,7.4-1.9,7.4c-1.9-0.8-3.7,0.1-3.7,0.1c-3-1.8-5.3-6.2-6.1-8.2c-0.1-0.3-0.6-0.4-0.8-0.1
		c-1.5,2.5-1.4,9.2-1.4,9.2l-2.4,0.1c-3.1-1.3-7.3-7.2-8.1-8.5c-0.1-0.2-0.5-0.2-0.6,0c-2.6,3.9,1.1,9.3,1.1,9.3
		c0.6,13.4,10.2,17.4,10.2,17.4c3.4,9.9-0.8,24.2-0.8,24.2c-11.9-3.7-20-0.2-20-0.2c2.2-4.4-0.6-10.2-1.1-11.5
		c-1.9-4.6-2.6-6.3-1.8-9.6c1.6-6.8,2.3-10.3,0.7-14.5c-1.7-4.4-5.5-5.5-6.7-6c-0.2-0.1-0.4-0.1-0.6-0.1c-6-0.8-8.4-6.5-8.7-7.2
		c-1.5,1.4-0.8,7.2-0.8,7.2c-4.7-0.6-8.1-5.2-9.1-6.5c-0.1-0.2-0.4-0.2-0.5,0c-1.1,2.3,0.9,7.3,0.9,7.3c-1.8-0.3-6.3-3.9-7.7-4.9
		c-0.2-0.1-0.5,0-0.5,0.2c-0.5,3.4,2.5,8.8,2.5,8.8c-1,8,5.1,8,10,16.3c4.9,8.4,6.5,22.4,6.5,22.4s-26,1-40.4,19.9l-0.3-9.1
		c0-0.3,0-0.5,0-0.8c0-1.1-0.7-2.1-1.8-2.4l-17.6-5l-6.6-7.6c-0.6-0.8-0.9-1.8-1-2.8l0-0.1c0-0.5,0.4-1,0.9-1.1l1.6,2.6
		c0.1,0.2,0.4,0.1,0.4-0.1l-0.2-2.9l1.3-0.1l1.3,2.4c0.1,0.1,0.2,0,0.2-0.1l0-2.5c0.3-0.3,0.5-0.9,0.6-1.4c0.1-0.4-0.1-0.9-0.5-1.1
		l-4.6-2.9c-0.9-0.6-2.8,0.5-3.6,1.2l-2.5,2.3c-0.3,0.3-0.4,0.8-0.2,1.2l2.5,5.5l4.8,10.9l14.2,7.9l-1.1,6.7l-0.1,0
		c-0.2-1-1.1-1.8-2.1-1.9L72.9,213l-8.6-5.5c-0.7-0.7-1.2-1.6-1.5-2.5l0-0.1c-0.1-0.5,0.1-1,0.7-1.2c0,0,0,0,0,0l3.3,2.1
		c0.1,0.1,0.4-0.2,0.4-0.4l-1.7-3.3l0.2-0.2l3.1,2.7c0.1,0.1,0.4-0.2,0.3-0.3l-1.5-3.3c0.3-0.3-0.2-1.6-0.2-1.7
		c-0.1-0.4-0.4-0.4-0.8-0.5l-4.4-1c-1-0.4-2.6,1-3.3,1.9l-2.4,3.9c-0.3,0.3-0.3,0.8,0,1.2l3.5,4.9L70.3,220l6.4,2.1
		c-4.7,0.7-12.6,1.7-12.6,1.7s-3.6-0.6-8,1.6c-2.4-8-9-11.2-9-11.2c-2.3-17.5-11.8-19.5-11.8-19.5c-4.7-2-11.6,0.5-14.5,1.7
		c-0.6,0.3-0.7,1.1-0.2,1.5c0.6,0.5,1.2,0.9,1.7,1.4c-0.1,0-0.1,0-0.1,0l-1.1,1.4c-0.2,0.2,0,0.5,0.2,0.5l3.4,0.4l-1.2,3.5
		c-0.1,0.2,0.1,0.5,0.4,0.4l3.6-1.1l-1.6,4.2c-0.1,0.3,0.1,0.6,0.5,0.6l4.9-0.4l-1.7,4.3c-0.1,0.3,0.1,0.6,0.4,0.6l4.6,0l-1.6,5
		c-0.2,0.4,0.1,0.9,0.6,0.9l4.3-0.3l0.1,0c0.8,1.5,1.4,2.9,1.9,4c0.8,1.8-0.3,3.8-2.2,4.1c0,0-0.1,0-0.1,0c-2.8,0.4-5.7-0.2-8-1.6
		l0.9-4.9c0-0.2-0.2-0.4-0.4-0.3l-4.4,0.8l2.3-4.1c0.1-0.2,0-0.5-0.2-0.5l-4.7-0.9l2.5-3.9c0.1-0.2,0-0.5-0.2-0.5l-4-1l2-2.8
		c0.2-0.3,0-0.6-0.3-0.7l-2.9-0.5l1.8-2.8c0.2-0.2,0-0.6-0.3-0.6l-2.9-0.2l2-3.2c0.1-0.1,0-0.3-0.2-0.3l-3,0.2l-0.1,0l-1.5-4.4
		c-0.4-1.1-1.5-1.7-2.7-1.4c-7.7,2-10.3,6.4-11.2,10.4c-0.8,0.4-3.1,2.8-0.5,5.2c0,0.6,0,1.1,0,1.6c-0.2,4.1,4,22.8,4,22.8
		c0,3.5-2.9,6.5,7.4,17.5c13.5,14.5,12.2,9.6,20.3,12.8c8.1,3.2,11.4-1.2,11.4-1.2s15.7-10,26-2.8s24.9,5.4,24.9,5.4
		s5.7-0.8,12.4,4.1c6.7,4.9,14.2,11.2,23.2,14s22.4,4,42.5-2.7c0,0,17.7-7.7,35.3-1.2c0.4,0.2,1.1,0.4,1,0.9
		c-0.4,2.1-3.8,4.1-12.8,7.1c0,0-9.7,3.2-13.2,9.7c-2.8,5.1-5.4,13.8,5.2,18.8c0.3,0.2,0.7-0.2,0.5-0.5c-1.5-3,1.8-9.4,9.7-10.4
		c0,0,17-0.3,29.1-11.4c4-3.6,8.2-11.3,10.1-20C240.4,263.8,237.9,253.3,231.4,245.2z"/>
	<path fill="#FFFFFF" d="M222.9,120.5c-0.1-14.6-0.3-90-0.7-104.6c0-0.4-0.3-1-0.6-0.7c-0.9,11.8-1.3,56.4-1,68.2
		c0.1,2.4,0.2,33-0.2,35.4c-0.2,1.3-0.5,2.6,0.1,3.8c0.6,1.1,2.6,1.4,3,0.2C223.6,121.7,223.6,121.1,222.9,120.5z"/>
	<path fill="#FFFFFF" d="M41.2,156.4c-0.1-14.6-0.3-90-0.7-104.6c0-0.4-0.3-1-0.6-0.7c-0.9,11.8-1.3,56.4-1,68.2
		c0.1,2.4,0.2,33-0.2,35.4c-0.2,1.3-0.5,2.6,0.1,3.8c0.6,1.1,2.6,1.4,3,0.2C41.9,157.7,41.9,157.1,41.2,156.4z"/>
	<path fill="#FFFFFF" d="M158.4,1c-0.2,9.5-0.5,20.5-0.7,30.1c-0.1,3.1-0.1,6.2-0.2,9.4c-0.2,9.7-1.1,21-0.5,29.3
		c0.1,1,0.6,1.7,1.5,1.7h0.1c0.6,0,1.1-0.7,1.1-1.8l-0.5-68.6c0,0,0-0.5-0.1-0.7C158.9-0.1,158.5-0.2,158.4,1z"/>
	<path fill="#FFFFFF" d="M92.8,98.6c0,0.9-0.2,2,0.2,2.7c0.1,0.2,0.1,0.2,0.2,0.3c0.6,0.7,2,0.2,2-0.8c0.8-9.7,0.4-26.7-0.2-36.4
		c0-0.6-0.1-0.6-0.2-0.6c-0.1,0-0.2,0.2-0.2,0.6L92.8,98.6z"/>
	<g>
		<path fill="#FFFFFF" d="M21.8,240.4c0,0,1.4,6.1,7.7,2.6"/>
		<path fill="#FFFFFF" d="M26.7,244.8c-1,0.1-1.9,0-2.7-0.3c-2.3-1-3-3.8-3-3.9c-0.1-0.4,0.2-0.8,0.6-0.9c0.4-0.1,0.8,0.2,0.9,0.6
			c0,0,0.5,2.1,2.1,2.8c1.1,0.5,2.6,0.3,4.4-0.7c0.4-0.2,0.8-0.1,1.1,0.3c0.2,0.4,0.1,0.8-0.3,1.1C28.7,244.3,27.7,244.7,26.7,244.8
			z"/>
	</g>
</g>
</svg>
